# xmcd
#
# Track frame offsets:
#  150
#  22804
#  37249
#  51337
#  67253
#  78240
#  94317
#  108076
#  127227
#  143674
#  162225
#  178821
#  199331
#  212189
#  224242
#  242352
#  259941
#  285596
#  300321
#  313884
#
# Disc length: 4400 seconds
#
# Revision: 0
# Processed by: cddbd v1.5.1PL2 Copyright (c) Steve Scherf et al.
# Submitted via: Collectorz.com_Music_Collector 6.10
#
DISCID=36112e14
DTITLE=100 diverse artiesten - The worlds absolute best ever beer songs
DYEAR=1900
DGENRE=
TTITLE0=Lynyrd Skynyrd - Sweet home Alabama
TTITLE1=Robert Palmer - Bad case of loving you
TTITLE2=Rose Tattoo - Bad boy for love
TTITLE3=Steppenwolf - Born to be wild
TTITLE4=Violent Femmes - Blister in the sun
TTITLE5=Chumbawamba - Tubthumping
TTITLE6=Supergrass - Alright
TTITLE7=Dexys Midnight Runners - Come on Eileen
TTITLE8=J. Geils Band - Centrefold
TTITLE9=Ben Harper and the innocent criminals - Steal my kisses
TTITLE10=Blind Melon - No rain
TTITLE11=Steve Early - Copperhead Road
TTITLE12=J.J. Cale - Cocaine
TTITLE13=The Radiators - Gimme head
TTITLE14=The commitments - Mustang Sally
TTITLE15=Bachman, Turner and Overdrive - You ain't see nothing yet
TTITLE16=Deep Purple - Smoke oin the water
TTITLE17=The Animals - We've gotta get out of this place
TTITLE18=The Straws - Part of the union
TTITLE19=Monty Python - Always look on the bright side of live
EXTD=
EXTT0=
EXTT1=
EXTT2=
EXTT3=
EXTT4=
EXTT5=
EXTT6=
EXTT7=
EXTT8=
EXTT9=
EXTT10=
EXTT11=
EXTT12=
EXTT13=
EXTT14=
EXTT15=
EXTT16=
EXTT17=
EXTT18=
EXTT19=
PLAYORDER=
